<?xml version="1.0" encoding="utf-8"?>
<!-- Generator: Adobe Illustrator 22.1.0, SVG Export Plug-In . SVG Version: 6.00 Build 0)  -->
<!DOCTYPE svg PUBLIC "-//W3C//DTD SVG 1.1//EN" "http://www.w3.org/Graphics/SVG/1.1/DTD/svg11.dtd">
<svg version="1.1" id="Layer_1" xmlns="http://www.w3.org/2000/svg" xmlns:xlink="http://www.w3.org/1999/xlink" x="0px" y="0px"
	 viewBox="0 0 128 128" style="enable-background:new 0 0 128 128;" xml:space="preserve">
<style type="text/css">
	.st0{fill:#161616;}
	.st1{fill:#00FF00;}
</style>
<g>
	<path class="st0" d="M24.3,103.5L1.2,79.6l13.2-22.8l-10.3-40l28.5-0.3l0.3-0.4c0.6-0.9,9.5-9.3,15.4-14.8l20.3,12.8l44.6-12.6
		l-5.9,18.6l15.9,36.6l-11.8,6.5l15.2,30.3l-21.3,3.9l-12.4,28.8l-17.9-16.4l-49.2,16.7L24.3,103.5z"/>
	<path class="st1" d="M48.4,2.5l19.2,12.2l0.8,0.5l0.9-0.2l42.4-12l-5.2,16.5l-0.2,0.7l0.3,0.7l15.3,35.5l-10.2,5.6l-1.7,0.9
		l0.9,1.7L125,92.8l-19.5,3.6l-1.1,0.2l-0.4,1l-11.6,27.1L76,109.6l-0.9-0.8l-1.1,0.4l-47.4,16.1l-1.3-21.5l0-0.7l-0.5-0.5l-22.3-23
		l12.6-21.8l0.4-0.7l-0.2-0.8L5.4,17.8l26.8-0.3l1,0l0.6-0.8C34.5,15.7,42.7,7.9,48.4,2.5 M114.8,0l-46,13L48.2,0
		c0,0-15.1,14.2-16.1,15.5L2.8,15.8l10.5,40.9L0,79.8l23.4,24.1l1.5,24.1l49.9-17l18.5,17l12.7-29.7l22.1-4.1l-15.3-30.6l11.8-6.5
		l-16.1-37.1L114.8,0L114.8,0z"/>
</g>
</svg>
