<?xml version="1.0" encoding="utf-8"?>
<!-- Generator: Adobe Illustrator 22.1.0, SVG Export Plug-In . SVG Version: 6.00 Build 0)  -->
<!DOCTYPE svg PUBLIC "-//W3C//DTD SVG 1.1//EN" "http://www.w3.org/Graphics/SVG/1.1/DTD/svg11.dtd">
<svg version="1.1" id="Layer_1" xmlns="http://www.w3.org/2000/svg" xmlns:xlink="http://www.w3.org/1999/xlink" x="0px" y="0px"
	 viewBox="0 0 128 128" style="enable-background:new 0 0 128 128;" xml:space="preserve">
<style type="text/css">
	.st0{fill:#161616;}
	.st1{fill:#00FF00;}
</style>
<g>
	<path class="st0" d="M24.3,103.5l-23-23.8l13.1-22.9L4,16.8l28.6-0.3l0.3-0.4c0.6-0.8,9.5-9.3,15.4-14.8l20.3,12.8l44.6-12.6
		l-5.9,18.7L123,56.6l-19,6.6l22.2,30.4l-21,3.8l-12.4,28.9L75,109.9l-49.3,16.8L24.3,103.5z"/>
	<path class="st1" d="M48.4,2.5l19.3,12.2l0.8,0.5l0.9-0.2l42.4-12l-5.2,16.6l-0.2,0.7l0.3,0.7L121.7,56L105,61.8l-2.6,0.9l1.6,2.2
		l20.5,28l-18.9,3.4l-1.1,0.2l-0.4,1l-11.6,27.1l-16.4-15.1l-0.9-0.8l-1.1,0.4l-47.5,16.2l-1.3-21.5l0-0.7l-0.5-0.5l-22.3-23
		L15,57.6l0.4-0.7l-0.2-0.8L5.3,17.7l26.8-0.3l1,0l0.6-0.8C34.4,15.7,42.7,7.9,48.4,2.5 M114.7,0l-46,13L48.1,0
		c0,0-15.1,14.2-16,15.5L2.7,15.8l10.6,40.8L0,79.8l23.3,24.1l1.5,24.1l49.9-17l18.5,17l12.7-29.7l22.1-4l-22.4-30.6l18.8-6.5
		l-16-37.1L114.7,0L114.7,0z"/>
</g>
</svg>
